<?xml version="1.0" encoding="utf-8"?>
<!-- Generator: Adobe Illustrator 25.3.1, SVG Export Plug-In . SVG Version: 6.00 Build 0)  -->
<svg version="1.1" id="Capa_1" xmlns="http://www.w3.org/2000/svg" xmlns:xlink="http://www.w3.org/1999/xlink" x="0px" y="0px"
	 viewBox="0 0 18 18" style="enable-background:new 0 0 18 18;" xml:space="preserve">
<g>
	<linearGradient id="SVGID_1_" gradientUnits="userSpaceOnUse" x1="3.5269" y1="3.5026" x2="14.2223" y2="16.9328">
		<stop  offset="0" style="stop-color:#00A4D4"/>
		<stop  offset="1" style="stop-color:#00A28A"/>
	</linearGradient>
	<path style="fill:url(#SVGID_1_);" d="M2.5,11.13h2.92c0.07,0.59,0.33,1.12,0.75,1.54c0.5,0.5,1.19,0.79,1.89,0.79
		c0.69,0,1.35-0.28,1.86-0.79c0.5-0.5,0.77-1.15,0.77-1.86V5.62h2.91v5.19c0,3.07-2.48,5.56-5.54,5.56
		C5.14,16.38,2.67,14.04,2.5,11.13z M8.05,1.62c-1.09,0-1.97,0.88-1.97,1.97c0,1.09,0.88,1.97,1.97,1.97c1.09,0,1.97-0.88,1.97-1.97
		C10.02,2.5,9.14,1.62,8.05,1.62z"/>
	<g>
		<linearGradient id="SVGID_2_" gradientUnits="userSpaceOnUse" x1="4.4573" y1="2.7616" x2="15.1528" y2="16.1918">
			<stop  offset="0" style="stop-color:#00A4D4"/>
			<stop  offset="1" style="stop-color:#00A28A"/>
		</linearGradient>
		<path style="fill:url(#SVGID_2_);" d="M13.6,15.43c0-0.52,0.42-0.95,0.95-0.95c0.52,0,0.95,0.43,0.95,0.95
			c0,0.52-0.42,0.95-0.95,0.95C14.02,16.38,13.6,15.96,13.6,15.43z M15.27,15.43c0-0.4-0.32-0.72-0.72-0.72
			c-0.4,0-0.72,0.32-0.72,0.72c0,0.4,0.32,0.72,0.72,0.72C14.94,16.15,15.27,15.83,15.27,15.43z"/>
		<linearGradient id="SVGID_3_" gradientUnits="userSpaceOnUse" x1="4.4143" y1="2.7959" x2="15.1097" y2="16.2261">
			<stop  offset="0" style="stop-color:#00A4D4"/>
			<stop  offset="1" style="stop-color:#00A28A"/>
		</linearGradient>
		<path style="fill:url(#SVGID_3_);" d="M14.99,15.89c-0.01,0-0.01,0-0.01,0c-0.07,0-0.14,0-0.21,0c-0.01,0-0.02,0-0.02-0.01
			c-0.06-0.08-0.11-0.15-0.17-0.23c-0.01-0.01-0.01-0.01-0.02-0.01c-0.05,0-0.1,0-0.14,0c-0.01,0-0.01,0-0.01,0.01
			c0,0.08,0,0.15,0,0.23c0,0.01,0,0.01-0.01,0.01c-0.06,0-0.11,0-0.17,0c-0.01,0-0.01,0-0.01-0.01c0-0.3,0-0.59,0-0.89
			c0-0.01,0-0.01,0.01-0.01c0.12,0,0.24,0,0.36,0c0.07,0,0.14,0.02,0.21,0.06c0.06,0.04,0.1,0.1,0.12,0.17
			c0.01,0.06,0.02,0.12,0,0.17c-0.02,0.08-0.06,0.14-0.12,0.18c-0.01,0.01-0.01,0.01,0,0.02c0.07,0.1,0.14,0.19,0.21,0.29
			C14.99,15.88,14.99,15.88,14.99,15.89z M14.4,15.31c0,0.04,0,0.08,0,0.12c0,0.01,0,0.01,0.01,0.01c0.04,0,0.09,0,0.13,0
			c0.03,0,0.07,0,0.1-0.02c0.04-0.01,0.06-0.04,0.07-0.08c0.01-0.02,0.01-0.05,0-0.07c0-0.03-0.01-0.05-0.03-0.07
			c-0.03-0.03-0.06-0.04-0.1-0.04c-0.06,0-0.12,0-0.17,0c-0.01,0-0.01,0-0.01,0.01C14.4,15.22,14.4,15.26,14.4,15.31z"/>
	</g>
</g>
</svg>
